<svg xmlns="http://www.w3.org/2000/svg" xmlns:xlink="http://www.w3.org/1999/xlink" width="1280" height="358" viewBox="0 0 1280 358"><defs><style>.a{fill:#0084cc;}.b{clip-path:url(#a);}.c{fill:#00f6d5;opacity:0.51;}.d{opacity:0.88;}.e{fill:#f6d770;}</style><clipPath id="a"><rect class="a" width="1280" height="358" transform="translate(0 2688)"/></clipPath></defs><g class="b" transform="translate(0 -2688)"><rect class="a" width="1280" height="358" transform="translate(0 2688)"/><path class="c" d="M169,0A169,169,0,0,1,338,169c0,93.336-8,185-126,217S118.25,254-4,192-486,356-320,90,75.664,0,169,0Z" transform="translate(1114 2564)"/><path class="c" d="M68,28C202.5,74.5,342,44.664,342,138S330,354,212,386,118.25,254-4,192-362,218-196-48-66.5-18.5,68,28Z" transform="translate(66 2914)"/><g class="d" transform="translate(339.983 2579.287)"><circle class="e" cx="4.5" cy="4.5" r="4.5" transform="translate(765.018 282.713)"/><circle class="e" cx="4.5" cy="4.5" r="4.5" transform="translate(793.018 259.713)"/><ellipse class="e" cx="4" cy="4.5" rx="4" ry="4.5" transform="translate(844.018 273.713)"/><ellipse class="e" cx="4" cy="4.5" rx="4" ry="4.5" transform="translate(891.018 273.713)"/><ellipse class="e" cx="4" cy="4.5" rx="4" ry="4.5" transform="translate(940.018 259.713)"/><circle class="e" cx="4.5" cy="4.5" r="4.5" transform="translate(866.018 235.713)"/><circle class="e" cx="4.5" cy="4.5" r="4.5" transform="translate(744.018 308.713)"/><circle class="e" cx="4.5" cy="4.5" r="4.5" transform="translate(793.018 308.713)"/><ellipse class="e" cx="4" cy="4.5" rx="4" ry="4.5" transform="translate(844.018 308.713)"/><ellipse class="e" cx="4" cy="4.5" rx="4" ry="4.5" transform="translate(891.018 308.713)"/><ellipse class="e" cx="4" cy="4.5" rx="4" ry="4.5" transform="translate(940.018 308.713)"/><circle class="e" cx="4.5" cy="4.5" r="4.5" transform="translate(990.018 308.713)"/><circle class="e" cx="4.5" cy="4.5" r="4.5" transform="translate(758.018 355.713)"/><circle class="e" cx="4.5" cy="4.5" r="4.5" transform="translate(725.018 355.713)"/><circle class="e" cx="4.5" cy="4.5" r="4.5" transform="translate(793.018 355.713)"/><ellipse class="e" cx="4" cy="4.5" rx="4" ry="4.5" transform="translate(844.018 355.713)"/><ellipse class="e" cx="4" cy="4.5" rx="4" ry="4.5" transform="translate(891.018 355.713)"/><ellipse class="e" cx="4" cy="4.5" rx="4" ry="4.5" transform="translate(940.018 355.713)"/><ellipse class="e" cx="4" cy="4.5" rx="4" ry="4.5" transform="translate(973.018 355.713)"/><circle class="e" cx="4.5" cy="4.5" r="4.5" transform="translate(1009.018 355.713)"/><circle class="e" cx="4.5" cy="4.5" r="4.5" transform="translate(758.018 406.713)"/><circle class="e" cx="4.5" cy="4.5" r="4.5" transform="translate(725.018 406.713)"/><circle class="e" cx="4.5" cy="4.5" r="4.5" transform="translate(793.018 406.713)"/><ellipse class="e" cx="4" cy="4.5" rx="4" ry="4.5" transform="translate(844.018 406.713)"/><ellipse class="e" cx="4" cy="4.5" rx="4" ry="4.5" transform="translate(891.018 406.713)"/><ellipse class="e" cx="4" cy="4.5" rx="4" ry="4.5" transform="translate(940.018 406.713)"/><ellipse class="e" cx="4" cy="4.5" rx="4" ry="4.5" transform="translate(973.018 406.713)"/><circle class="e" cx="4.5" cy="4.5" r="4.5" transform="translate(1009.018 406.713)"/><circle class="e" cx="4.5" cy="4.5" r="4.5" transform="translate(826.018 238.713)"/><ellipse class="e" cx="4.5" cy="4" rx="4.5" ry="4" transform="translate(793.018 455.713)"/><circle class="e" cx="4" cy="4" r="4" transform="translate(844.018 455.713)"/><circle class="e" cx="4" cy="4" r="4" transform="translate(891.018 455.713)"/><circle class="e" cx="4" cy="4" r="4" transform="translate(940.018 455.713)"/><circle class="e" cx="4.5" cy="4.5" r="4.5" transform="translate(913.018 238.713)"/><circle class="e" cx="4.5" cy="4.5" r="4.5" transform="translate(969.018 282.713)"/><ellipse class="e" cx="4" cy="4.5" rx="4" ry="4.5" transform="translate(844.018 505.713)"/><ellipse class="e" cx="4" cy="4.5" rx="4" ry="4.5" transform="translate(891.018 505.713)"/><ellipse class="e" cx="4" cy="4.5" rx="4" ry="4.5" transform="translate(940.018 493.713)"/><circle class="e" cx="4.5" cy="4.5" r="4.5" transform="translate(793.018 493.713)"/><ellipse class="e" cx="4.5" cy="4" rx="4.5" ry="4" transform="translate(758.018 455.713)"/><circle class="e" cx="4" cy="4" r="4" transform="translate(973.018 455.713)"/></g><g class="d" transform="translate(-772.017 2355.287)"><circle class="e" cx="4.5" cy="4.5" r="4.5" transform="translate(765.018 282.713)"/><circle class="e" cx="4.5" cy="4.5" r="4.5" transform="translate(793.018 259.713)"/><ellipse class="e" cx="4" cy="4.5" rx="4" ry="4.5" transform="translate(844.018 273.713)"/><ellipse class="e" cx="4" cy="4.5" rx="4" ry="4.5" transform="translate(891.018 273.713)"/><ellipse class="e" cx="4" cy="4.5" rx="4" ry="4.5" transform="translate(940.018 259.713)"/><circle class="e" cx="4.5" cy="4.5" r="4.5" transform="translate(866.018 235.713)"/><circle class="e" cx="4.5" cy="4.5" r="4.5" transform="translate(744.018 308.713)"/><circle class="e" cx="4.5" cy="4.5" r="4.5" transform="translate(793.018 308.713)"/><ellipse class="e" cx="4" cy="4.5" rx="4" ry="4.5" transform="translate(844.018 308.713)"/><ellipse class="e" cx="4" cy="4.5" rx="4" ry="4.5" transform="translate(891.018 308.713)"/><ellipse class="e" cx="4" cy="4.5" rx="4" ry="4.5" transform="translate(940.018 308.713)"/><circle class="e" cx="4.5" cy="4.5" r="4.5" transform="translate(990.018 308.713)"/><circle class="e" cx="4.5" cy="4.5" r="4.5" transform="translate(758.018 355.713)"/><circle class="e" cx="4.5" cy="4.5" r="4.5" transform="translate(725.018 355.713)"/><circle class="e" cx="4.5" cy="4.5" r="4.5" transform="translate(793.018 355.713)"/><ellipse class="e" cx="4" cy="4.5" rx="4" ry="4.5" transform="translate(844.018 355.713)"/><ellipse class="e" cx="4" cy="4.5" rx="4" ry="4.5" transform="translate(891.018 355.713)"/><ellipse class="e" cx="4" cy="4.5" rx="4" ry="4.5" transform="translate(940.018 355.713)"/><ellipse class="e" cx="4" cy="4.5" rx="4" ry="4.5" transform="translate(973.018 355.713)"/><circle class="e" cx="4.5" cy="4.5" r="4.5" transform="translate(1009.018 355.713)"/><circle class="e" cx="4.5" cy="4.5" r="4.5" transform="translate(758.018 406.713)"/><circle class="e" cx="4.5" cy="4.5" r="4.5" transform="translate(725.018 406.713)"/><circle class="e" cx="4.5" cy="4.5" r="4.5" transform="translate(793.018 406.713)"/><ellipse class="e" cx="4" cy="4.5" rx="4" ry="4.5" transform="translate(844.018 406.713)"/><ellipse class="e" cx="4" cy="4.5" rx="4" ry="4.5" transform="translate(891.018 406.713)"/><ellipse class="e" cx="4" cy="4.5" rx="4" ry="4.5" transform="translate(940.018 406.713)"/><ellipse class="e" cx="4" cy="4.5" rx="4" ry="4.5" transform="translate(973.018 406.713)"/><circle class="e" cx="4.5" cy="4.5" r="4.5" transform="translate(1009.018 406.713)"/><circle class="e" cx="4.5" cy="4.5" r="4.5" transform="translate(826.018 238.713)"/><ellipse class="e" cx="4.5" cy="4" rx="4.5" ry="4" transform="translate(793.018 455.713)"/><circle class="e" cx="4" cy="4" r="4" transform="translate(844.018 455.713)"/><circle class="e" cx="4" cy="4" r="4" transform="translate(891.018 455.713)"/><circle class="e" cx="4" cy="4" r="4" transform="translate(940.018 455.713)"/><circle class="e" cx="4.5" cy="4.5" r="4.5" transform="translate(913.018 238.713)"/><circle class="e" cx="4.5" cy="4.5" r="4.5" transform="translate(969.018 282.713)"/><ellipse class="e" cx="4" cy="4.5" rx="4" ry="4.5" transform="translate(844.018 505.713)"/><ellipse class="e" cx="4" cy="4.5" rx="4" ry="4.5" transform="translate(891.018 505.713)"/><ellipse class="e" cx="4" cy="4.5" rx="4" ry="4.5" transform="translate(940.018 493.713)"/><circle class="e" cx="4.5" cy="4.5" r="4.5" transform="translate(793.018 493.713)"/><ellipse class="e" cx="4.5" cy="4" rx="4.5" ry="4" transform="translate(758.018 455.713)"/><circle class="e" cx="4" cy="4" r="4" transform="translate(973.018 455.713)"/></g></g></svg>